<svg xmlns="http://www.w3.org/2000/svg" version="1.1" xmlns:xlink="http://www.w3.org/1999/xlink" xmlns:svgjs="http://svgjs.dev/svgjs" width="2000" height="1247" viewBox="0 0 2000 1247"><g transform="matrix(1,0,0,1,-1.2121212121212466,0.504858299595071)"><svg viewBox="0 0 396 247" data-background-color="#001f3f" preserveAspectRatio="xMidYMid meet" height="1247" width="2000" xmlns="http://www.w3.org/2000/svg" xmlns:xlink="http://www.w3.org/1999/xlink"><g id="tight-bounds" transform="matrix(1,0,0,1,0.2400000000000091,-0.09999999999999432)"><svg viewBox="0 0 395.52 247.2" height="247.2" width="395.52"><g><svg></svg></g><g><svg viewBox="0 0 395.52 247.2" height="247.2" width="395.52"><g transform="matrix(1,0,0,1,75.54432,54.10444832598115)"><svg viewBox="0 0 244.43135999999998 138.99110334803768" height="138.99110334803768" width="244.43135999999998"><g><svg viewBox="0 0 268.6623833840024 152.7696" height="138.99110334803768" width="244.43135999999998"><g><svg viewBox="0 0 143.75596248108923 152.7696" height="152.7696" width="143.75596248108923"><g id="textblocktransform"><svg viewBox="0 0 143.75596248108923 152.7696" height="152.7696" width="143.75596248108923" id="textblock"><g><svg viewBox="0 0 143.75596248108923 152.7696" height="152.7696" width="143.75596248108923"><g transform="matrix(1,0,0,1,0,0)"><svg width="143.75596248108923" viewBox="2.75 -27.9 31.1 33.05" height="152.7696" data-palette-color="url(#bf9cb32a-784d-426c-8677-162341b19bd4)"><g class="wordmark-text-0" data-fill-palette-color="primary" id="text-0"></g></svg></g></svg></g></svg></g></svg></g><g transform="matrix(1,0,0,1,179.82119857068923,21.157584978283154)"><svg viewBox="0 0 88.84118481331315 110.45443004343369" height="110.45443004343369" width="88.84118481331315"><g><svg xmlns="http://www.w3.org/2000/svg" xmlns:xlink="http://www.w3.org/1999/xlink" version="1.1" x="0" y="0" viewBox="64 18.8 372 462.5" enable-background="new 0 0 500 500" xml:space="preserve" height="110.45443004343369" width="88.84118481331315" class="icon-icon-0" data-fill-palette-color="accent" id="icon-0"></svg></g></svg></g></svg></g></svg></g></svg></g><defs></defs><mask id="153c0ae7-37c7-4f4d-bcd2-92414e441909"><g id="SvgjsG1858"><svg viewBox="0 0 395.52 247.2" height="247.2" width="395.52"><g><svg></svg></g><g><svg viewBox="0 0 395.52 247.2" height="247.2" width="395.52"><g transform="matrix(1,0,0,1,75.54432,54.10444832598115)"><svg viewBox="0 0 244.43135999999998 138.99110334803768" height="138.99110334803768" width="244.43135999999998"><g><svg viewBox="0 0 268.6623833840024 152.7696" height="138.99110334803768" width="244.43135999999998"><g><svg viewBox="0 0 143.75596248108923 152.7696" height="152.7696" width="143.75596248108923"><g id="SvgjsG1857"><svg viewBox="0 0 143.75596248108923 152.7696" height="152.7696" width="143.75596248108923" id="SvgjsSvg1856"><g><svg viewBox="0 0 143.75596248108923 152.7696" height="152.7696" width="143.75596248108923"><g transform="matrix(1,0,0,1,0,0)"><svg width="143.75596248108923" viewBox="2.75 -27.9 31.1 33.05" height="152.7696" data-palette-color="url(#bf9cb32a-784d-426c-8677-162341b19bd4)"><g class="wordmark-text-0" data-fill-palette-color="primary" id="SvgjsG1855"><path d="M16.5 5.15L16.5 5.15Q13.85 5.15 11.38 4.2 8.9 3.25 6.95 1.3 5-0.65 3.88-3.68 2.75-6.7 2.75-10.85L2.75-10.85Q2.75-15.55 4.38-19.43 6-23.3 9.47-25.6 12.95-27.9 18.45-27.9L18.45-27.9Q23.4-27.9 26.85-26.03 30.3-24.15 32.08-20.58 33.85-17 33.85-11.8L33.85-11.8Q33.85-9.15 33.27-6.83 32.7-4.5 31.4-3.05 30.1-1.6 27.8-1.6L27.8-1.6Q25.95-1.6 24.6-2.58 23.25-3.55 22.95-4.85L22.95-4.85Q21.65-3.5 20.33-2.78 19-2.05 16.8-2.05L16.8-2.05Q15.15-2.05 13.7-2.58 12.25-3.1 11.4-4.3 10.55-5.5 10.55-7.5L10.55-7.5Q10.55-9.8 11.75-11.03 12.95-12.25 15.15-12.7 17.35-13.15 20.35-13.15L20.35-13.15 22.5-13.15 22.5-14.1Q22.5-16.3 21.33-17.32 20.15-18.35 17.6-18.35L17.6-18.35Q16-18.35 15.13-18.05 14.25-17.75 13.75-17.43 13.25-17.1 12.85-17.1L12.85-17.1Q12.55-17.1 12.3-17.35 12.05-17.6 11.93-17.95 11.8-18.3 11.8-18.5L11.8-18.5Q11.8-19.2 12.78-19.75 13.75-20.3 15.2-20.63 16.65-20.95 18.1-20.95L18.1-20.95Q20.3-20.95 21.88-20.2 23.45-19.45 24.33-18.03 25.2-16.6 25.2-14.55L25.2-14.55 25.2-6.25Q25.35-5.1 26.2-4.42 27.05-3.75 28-3.75L28-3.75Q29.05-3.75 29.73-4.48 30.4-5.2 30.75-6.38 31.1-7.55 31.23-8.88 31.35-10.2 31.35-11.45L31.35-11.45Q31.35-18 28.18-21.73 25-25.45 18.35-25.45L18.35-25.45Q14.6-25.45 12.1-24.28 9.6-23.1 8.08-21.03 6.55-18.95 5.88-16.35 5.2-13.75 5.2-10.9L5.2-10.9Q5.2-8.25 5.8-5.78 6.4-3.3 7.75-1.38 9.1 0.55 11.33 1.68 13.55 2.8 16.85 2.8L16.85 2.8Q19.05 2.8 20.43 2.4 21.8 2 22.63 1.63 23.45 1.25 23.9 1.25L23.9 1.25Q24.4 1.25 24.68 1.63 24.95 2 24.95 2.35L24.95 2.35Q24.95 2.85 24.2 3.35 23.45 3.85 22.18 4.25 20.9 4.65 19.4 4.9 17.9 5.15 16.5 5.15ZM17.15-4.25L17.15-4.25Q18.85-4.25 20.05-4.9 21.25-5.55 21.93-6.5 22.6-7.45 22.6-8.35L22.6-8.35 22.6-11.1 20.55-11.1Q18.5-11.1 16.88-10.88 15.25-10.65 14.3-9.88 13.35-9.1 13.35-7.5L13.35-7.5Q13.35-5.8 14.45-5.03 15.55-4.25 17.15-4.25Z" fill="white"></path></g></svg></g></svg></g></svg></g></svg></g><g transform="matrix(1,0,0,1,179.82119857068923,21.157584978283154)"><svg viewBox="0 0 88.84118481331315 110.45443004343369" height="110.45443004343369" width="88.84118481331315"><g><svg xmlns="http://www.w3.org/2000/svg" xmlns:xlink="http://www.w3.org/1999/xlink" version="1.1" x="0" y="0" viewBox="64 18.8 372 462.5" enable-background="new 0 0 500 500" xml:space="preserve" height="110.45443004343369" width="88.84118481331315" class="icon-icon-0" data-fill-palette-color="accent" id="SvgjsSvg1854"></svg></g></svg></g></svg></g></svg></g><path d="M144.707 48.104L144.707 3.629 384.649 3.629 384.649 243.571 144.707 243.571 144.707 199.096 157.241 199.096 157.241 231.037 372.115 231.037 372.115 16.163 157.241 16.163 157.241 48.104Z" fill="white" stroke="transparent"></path></svg></g><defs><mask></mask></defs></svg></g></mask><linearGradient x1="0" x2="1" y1="0.548" y2="0.55" id="bf9cb32a-784d-426c-8677-162341b19bd4"><stop stop-color="#ff6cab" offset="0"></stop><stop stop-color="#7366ff" offset="1"></stop></linearGradient><rect width="395.52" height="247.2" fill="url(#bf9cb32a-784d-426c-8677-162341b19bd4)" mask="url(#153c0ae7-37c7-4f4d-bcd2-92414e441909)" data-fill-palette-color="primary"></rect><mask id="f2be2a86-0343-4c24-9070-112d0e65d38f"><g id="SvgjsG1868"><svg viewBox="0 0 395.52 247.2" height="247.2" width="395.52"><g><svg></svg></g><g><svg viewBox="0 0 395.52 247.2" height="247.2" width="395.52"><g transform="matrix(1,0,0,1,75.54432,54.10444832598115)"><svg viewBox="0 0 244.43135999999998 138.99110334803768" height="138.99110334803768" width="244.43135999999998"><g><svg viewBox="0 0 268.6623833840024 152.7696" height="138.99110334803768" width="244.43135999999998"><g><svg viewBox="0 0 143.75596248108923 152.7696" height="152.7696" width="143.75596248108923"><g id="SvgjsG1867"><svg viewBox="0 0 143.75596248108923 152.7696" height="152.7696" width="143.75596248108923" id="SvgjsSvg1866"><g><svg viewBox="0 0 143.75596248108923 152.7696" height="152.7696" width="143.75596248108923"><g transform="matrix(1,0,0,1,0,0)"><svg width="143.75596248108923" viewBox="2.75 -27.9 31.1 33.05" height="152.7696" data-palette-color="url(#bf9cb32a-784d-426c-8677-162341b19bd4)"><g class="wordmark-text-0" data-fill-palette-color="primary" id="SvgjsG1865"></g></svg></g></svg></g></svg></g></svg></g><g transform="matrix(1,0,0,1,179.82119857068923,21.157584978283154)"><svg viewBox="0 0 88.84118481331315 110.45443004343369" height="110.45443004343369" width="88.84118481331315"><g><svg xmlns="http://www.w3.org/2000/svg" xmlns:xlink="http://www.w3.org/1999/xlink" version="1.1" x="0" y="0" viewBox="64 18.8 372 462.5" enable-background="new 0 0 500 500" xml:space="preserve" height="110.45443004343369" width="88.84118481331315" class="icon-icon-0" data-fill-palette-color="accent" id="SvgjsSvg1864"><path d="M250 243.8c62 0 112.5-50.5 112.5-112.5S312 18.8 250 18.8 137.5 69.3 137.5 131.3C137.5 193.3 188 243.8 250 243.8zM250 62.3c38 0 69 31 69 69s-31 69-69 69-69-31-69-69S212 62.3 250 62.3z" fill="white"></path><path d="M273.5 255.8h-47c-90 0-162.5 73-162.5 162.5v41.5c0 12 10 21.5 21.5 21.5s21.5-10 21.5-21.5v-41.5c0-65.5 53.5-119.5 119.5-119.5h47c65.5 0 119.5 53.5 119.5 119.5v41.5c0 12 10 21.5 21.5 21.5 12 0 21.5-10 21.5-21.5v-41.5C436 328.3 363.5 255.8 273.5 255.8z" fill="white"></path></svg></g></svg></g></svg></g></svg></g></svg></g><defs><mask></mask></defs><mask><g id="SvgjsG1863"><svg viewBox="0 0 395.52 247.2" height="247.2" width="395.52"><g><svg></svg></g><g><svg viewBox="0 0 395.52 247.2" height="247.2" width="395.52"><g transform="matrix(1,0,0,1,75.54432,54.10444832598115)"><svg viewBox="0 0 244.43135999999998 138.99110334803768" height="138.99110334803768" width="244.43135999999998"><g><svg viewBox="0 0 268.6623833840024 152.7696" height="138.99110334803768" width="244.43135999999998"><g><svg viewBox="0 0 143.75596248108923 152.7696" height="152.7696" width="143.75596248108923"><g id="SvgjsG1862"><svg viewBox="0 0 143.75596248108923 152.7696" height="152.7696" width="143.75596248108923" id="SvgjsSvg1861"><g><svg viewBox="0 0 143.75596248108923 152.7696" height="152.7696" width="143.75596248108923"><g transform="matrix(1,0,0,1,0,0)"><svg width="143.75596248108923" viewBox="2.75 -27.9 31.1 33.05" height="152.7696" data-palette-color="url(#bf9cb32a-784d-426c-8677-162341b19bd4)"><g class="wordmark-text-0" data-fill-palette-color="primary" id="SvgjsG1860"></g></svg></g></svg></g></svg></g></svg></g><g transform="matrix(1,0,0,1,179.82119857068923,21.157584978283154)"><svg viewBox="0 0 88.84118481331315 110.45443004343369" height="110.45443004343369" width="88.84118481331315"><g><svg xmlns="http://www.w3.org/2000/svg" xmlns:xlink="http://www.w3.org/1999/xlink" version="1.1" x="0" y="0" viewBox="64 18.8 372 462.5" enable-background="new 0 0 500 500" xml:space="preserve" height="110.45443004343369" width="88.84118481331315" class="icon-icon-0" data-fill-palette-color="accent" id="SvgjsSvg1859"></svg></g></svg></g></svg></g></svg></g></svg></g><defs><mask></mask></defs></svg></g></mask></svg></g></mask><linearGradient x1="0" x2="1" y1="0.548" y2="0.55" id="c6adf1bd-a4ff-40a2-b3b3-631de64bff7b"><stop stop-color="#ff6cab" offset="0"></stop><stop stop-color="#7366ff" offset="1"></stop></linearGradient><rect width="395.52" height="247.2" fill="url(#c6adf1bd-a4ff-40a2-b3b3-631de64bff7b)" mask="url(#f2be2a86-0343-4c24-9070-112d0e65d38f)" data-fill-palette-color="accent"></rect></svg><rect width="395.52" height="247.2" fill="none" stroke="none" visibility="hidden"></rect></g></svg></g></svg>